<svg width="64" height="64" viewBox="0 0 64 64" fill="none" xmlns="http://www.w3.org/2000/svg"><rect width="64" height="64" rx="12" fill="url(#gradient)"/><path fill-rule="evenodd" clip-rule="evenodd" d="M21.68 14.03C20.78 14.03 20 14.81 20 15.71V34.29c0 .9.78 1.68 1.68 1.68h4.32V43.97l6.8-8h9.52c.9 0 1.68-.78 1.68-1.68V15.71c0-.9-.78-1.68-1.68-1.68H21.68z" fill="#fff" fill-opacity=".95"/><path d="M32 21c-3.4 0-5 2-5 4s1.6 4 5 4 5-2 5-4-1.6-4-5-4zm0 2c2.3 0 3.5 1.2 3.5 2s-1.2 2-3.5 2-3.5-1.2-3.5-2 1.2-2 3.5-2z" fill="#6366F1"/><path d="M32 29.5c-2.8 0-4 1.5-4 3s1.2 3 4 3 4-1.5 4-3-1.2-3-4-3z" fill="#818CF8" opacity=".8"/><defs><linearGradient id="gradient" x1="0" y1="0" x2="64" y2="64" gradientUnits="userSpaceOnUse"><stop stop-color="#6366F1"/><stop offset="1" stop-color="#818CF8"/></linearGradient></defs></svg>